<svg xmlns="http://www.w3.org/2000/svg" width="1086" height="269"><style>.dark .a {fill:#F2F5F7}</style><path fill="#3faad7" d="M118.813 208.367v61.56l118.79-62.357v-61.553l-118.79 62.35Z"/><path fill="#0064af" d="m171.988 89.473 58.614-30.78L118.812 0v61.56l53.176 27.914Zm-99.343 18.38v61.58l46.165 24.23V132.11l-46.165-24.257Z"/><path fill="#3faad7" d="M237.604 69.727 118.813 132.11v61.551l118.79-62.358V69.727ZM7.074 58.657l58.262 30.96L118.81 61.56V0L7.074 58.657Z"/><path fill="#0064af" d="M58.633 176.79v-76.32L0 69.698v137.87l118.81 62.357v-61.56l-60.177-31.577Z"/><path class="a" fill-rule="evenodd" fill="#2A3F4D" d="M521.86 212.76c-7.334 0-14.153-.66-20.46-1.98-6.306-1.32-11.806-3.594-16.5-6.82-4.693-3.227-8.398-7.517-11.11-12.87-2.714-5.353-4.07-11.99-4.07-19.91 0-7.187 1.138-14.226 3.41-21.12 2.274-6.893 6.087-13.017 11.44-18.37 5.354-5.354 12.54-9.643 21.56-12.87 9.02-3.226 20.277-4.84 33.77-4.84 14.667 0 25.703 2.272 33.11 6.82 7.406 4.546 11.11 11.66 11.11 21.34 0 3.96-.587 8.25-1.76 12.87-1.174 4.62-2.933 8.543-5.28 11.77h-61.82a88.923 88.923 0 0 0-1.21 9.24c-.22 2.933-.33 5.573-.33 7.92 0 1.32.073 2.787.22 4.4.146 1.613.476 3.117.99 4.51.513 1.393 1.248 2.566 2.2 3.52.954.953 2.31 1.43 4.07 1.43 1.32 0 2.824-.44 4.51-1.32 1.688-.88 3.373-2.126 5.06-3.74 1.686-1.613 3.3-3.594 4.84-5.94 1.54-2.348 2.75-4.988 3.63-7.92h36.08l-5.72 23.54c-2.934 1.907-6.306 3.52-10.12 4.84-3.813 1.32-7.846 2.383-12.1 3.19a125.59 125.59 0 0 1-12.98 1.76c-4.4.366-8.58.55-12.54.55Zm107.8 0c-11.88 0-21.707-.88-29.48-2.64-7.774-1.76-13.2-3.446-16.28-5.06l4.62-22h29.7a10.673 10.673 0 0 0-.22 2.09v2.09c0 3.374.77 6.05 2.31 8.03 1.54 1.98 4.216 2.97 8.03 2.97 4.253 0 7.297-1.21 9.13-3.63 1.834-2.42 2.75-4.656 2.75-6.71 0-2.053-.77-3.85-2.31-5.39-1.54-1.54-3.483-2.86-5.83-3.96s-4.95-2.054-7.81-2.86c-2.86-.807-5.61-1.578-8.25-2.31-1.907-.44-4.07-1.173-6.49-2.2-2.42-1.027-4.73-2.494-6.93-4.4-2.2-1.907-4.034-4.363-5.5-7.37-1.467-3.006-2.2-6.783-2.2-11.33 0-6.453 1.577-11.843 4.73-16.17 3.154-4.326 7.26-7.81 12.32-10.45 5.06-2.64 10.78-4.546 17.16-5.72 6.35-1.17 12.793-1.76 19.25-1.76 8.066 0 15.694.733 22.88 2.2 7.187 1.467 13.053 3.374 17.6 5.72l-5.06 22.22h-28.6c.146-.734.292-1.466.44-2.2.146-.733.22-1.54.22-2.42 0-2.64-.476-5.098-1.43-7.37-.953-2.274-2.823-3.41-5.61-3.41-2.493 0-4.986 1.064-7.48 3.19-2.493 2.127-3.74 4.95-3.74 8.47 0 2.346.623 4.217 1.87 5.61 1.246 1.394 2.897 2.53 4.95 3.41 2.054.88 4.363 1.613 6.93 2.2 2.567.587 5.097 1.173 7.59 1.76a79.916 79.916 0 0 1 10.01 3.19c3.153 1.246 5.977 2.897 8.47 4.95 2.494 2.054 4.473 4.583 5.94 7.59 1.467 3.007 2.2 6.71 2.2 11.11 0 6.16-1.43 11.33-4.29 15.51-2.86 4.18-6.82 7.554-11.88 10.12-5.06 2.567-11 4.364-17.82 5.39-6.82 1.028-14.116 1.54-21.89 1.54Zm118.14 0c-18.04 0-30.947-3.446-38.72-10.34-8.36-7.187-12.54-17.966-12.54-32.34 0-9.533 1.942-18.187 5.83-25.96 3.886-7.774 9.496-14.227 16.83-19.36 10.706-7.187 25.373-10.78 44-10.78 17.453 0 30.14 3.08 38.06 9.24 8.36 6.454 12.54 17.16 12.54 32.12 0 9.24-1.54 17.564-4.62 24.97-3.08 7.407-7.407 13.53-12.98 18.37-11.148 9.387-27.28 14.08-48.4 14.08Zm231.44 0c-5.133 0-9.496-.77-13.09-2.31-3.593-1.54-6.527-3.63-8.8-6.27-2.274-2.64-3.923-5.83-4.95-9.57-1.026-3.74-1.54-7.81-1.54-12.21 0-1.906.147-4.95.44-9.13.294-4.18.99-8.8 2.09-13.86 1.1-5.06 2.714-10.267 4.84-15.62a55.197 55.197 0 0 1 8.58-14.63c3.594-4.4 8.03-8.03 13.31-10.89 5.28-2.86 11.66-4.29 19.14-4.29 2.346 0 4.84.22 7.48.66a27.79 27.79 0 0 1 7.59 2.42c2.42 1.174 4.584 2.86 6.49 5.06 1.907 2.2 3.3 5.06 4.18 8.58h1.54l14.3-67.54h45.1L1054.48 211h-35.64l-3.96-14.08h-1.54c-.88 1.32-2.237 2.897-4.07 4.73-1.834 1.834-4.143 3.593-6.93 5.28-2.787 1.687-6.087 3.08-9.9 4.18-3.814 1.1-8.213 1.65-13.2 1.65ZM818.2 211l31.24-147.84h45.1L863.08 211H818.2Zm64.46 0 20.02-94.6h45.1L927.32 211h-44.66Zm-134.42-13.2c3.667 0 6.857-2.052 9.57-6.16 2.714-4.106 4.877-9.13 6.49-15.07 1.614-5.94 2.823-12.1 3.63-18.48.806-6.38 1.21-11.916 1.21-16.61 0-4.106-.404-7.224-1.21-9.35-.807-2.128-2.53-3.19-5.17-3.19-3.96 0-7.37 2.127-10.23 6.38-2.86 4.254-5.17 9.314-6.93 15.18a114.335 114.335 0 0 0-3.85 18.04c-.807 6.16-1.21 11.147-1.21 14.96 0 9.534 2.567 14.3 7.7 14.3Zm253.44-5.72c1.466 0 2.897-.33 4.29-.99a22.016 22.016 0 0 0 3.96-2.42c1.246-.953 2.31-1.944 3.19-2.97.88-1.027 1.614-1.906 2.2-2.64l8.58-40.04c-1.026-1.614-2.383-3.263-4.07-4.95-1.687-1.686-3.63-2.53-5.83-2.53-3.52 0-6.454 1.943-8.8 5.83-2.347 3.886-4.253 8.397-5.72 13.53a104.512 104.512 0 0 0-3.19 15.4c-.66 5.132-.99 8.947-.99 11.44 0 2.934.44 5.39 1.32 7.37.88 1.98 2.566 2.97 5.06 2.97Zm-484.22-35.42h25.08c.292-1.76.587-3.593.88-5.5.293-1.613.55-3.374.77-5.28.22-1.908.33-3.667.33-5.28 0-4.547-.733-7.627-2.2-9.24-1.466-1.614-3.228-2.42-5.28-2.42-2.348 0-4.51.77-6.49 2.31-1.98 1.54-3.777 3.594-5.39 6.16-1.613 2.567-3.08 5.5-4.4 8.8a75.624 75.624 0 0 0-3.3 10.45Zm411.62-48.62c-5.867 0-10.78-1.394-14.74-4.18-3.96-2.787-5.94-7.186-5.94-13.2 0-3.226.66-6.122 1.98-8.69 1.32-2.566 3.116-4.693 5.39-6.38 2.273-1.687 4.913-2.97 7.92-3.85a33.111 33.111 0 0 1 9.35-1.32c5.72 0 10.56 1.393 14.52 4.18 3.96 2.787 5.94 7.114 5.94 12.98 0 3.374-.696 6.306-2.09 8.8a20.867 20.867 0 0 1-5.5 6.38c-2.273 1.76-4.877 3.08-7.81 3.96a31.217 31.217 0 0 1-9.02 1.32Zm-460.02-3.52c0 8.653-2.42 16.647-7.26 23.98-4.84 7.333-12.833 12.907-23.98 16.72L463.34 211h-49.06l-19.36-60.94h-2.42L379.52 211H332l29.7-139.7h57.86c6.747 0 13.127.403 19.14 1.21 6.013.807 11.257 2.42 15.73 4.84 4.473 2.42 8.03 5.793 10.67 10.12 2.64 4.327 3.96 10.01 3.96 17.05Zm-63.36 31.46c3.813 0 7.077-1.283 9.79-3.85 2.713-2.567 4.913-5.683 6.6-9.35 1.687-3.667 2.897-7.59 3.63-11.77.733-4.18 1.1-7.81 1.1-10.89 0-3.813-.66-7.077-1.98-9.79-1.32-2.713-4.18-4.07-8.58-4.07h-9.9l-11 49.72Z"/></svg>