<svg xmlns="http://www.w3.org/2000/svg" width="32" height="32"><path fill="#0064af" d="M26.222 1.391a4.392 4.392 0 0 1 4.387 4.387v20.445a4.392 4.392 0 0 1-4.387 4.386H5.778a4.392 4.392 0 0 1-4.387-4.387V5.778a4.392 4.392 0 0 1 4.387-4.387h20.444m0-1.391H5.778A5.777 5.777 0 0 0 0 5.778v20.445A5.777 5.777 0 0 0 5.778 32h20.445A5.777 5.777 0 0 0 32 26.222V5.778A5.777 5.777 0 0 0 26.222 0Z"/><path fill="#3faad7" d="M15.97 21.823v4.859l9.375-4.922V16.9l-9.374 4.923Z"/><path fill="#0064af" d="m20.167 12.438 4.626-2.43-8.822-4.633v4.86l4.196 2.203Zm-7.839 1.45v4.861l3.643 1.913v-4.859l-3.643-1.915Z"/><path fill="#3faad7" d="m25.345 10.879-9.374 4.924v4.859l9.374-4.922v-4.861Zm-18.192-.874 4.598 2.444 4.22-2.215V5.375l-8.818 4.63Z"/><path fill="#0064af" d="M11.222 19.33v-6.024l-4.627-2.43V21.76l9.376 4.923v-4.86l-4.749-2.492Z"/></svg>